<svg width="16" height="16" viewBox="0 0 16 16" fill="none" xmlns="http://www.w3.org/2000/svg">
<g clip-path="url(#clip0_2119_1380)">
<path d="M8.00033 8.00016C7.26699 8.00016 6.66699 7.40016 6.66699 6.66683C6.66699 5.9335 7.26699 5.3335 8.00033 5.3335C8.73366 5.3335 9.33366 5.9335 9.33366 6.66683C9.33366 7.40016 8.73366 8.00016 8.00033 8.00016ZM12.0003 6.80016C12.0003 4.38016 10.2337 2.66683 8.00033 2.66683C5.76699 2.66683 4.00033 4.38016 4.00033 6.80016C4.00033 8.36016 5.30033 10.4268 8.00033 12.8935C10.7003 10.4268 12.0003 8.36016 12.0003 6.80016ZM8.00033 1.3335C10.8003 1.3335 13.3337 3.48016 13.3337 6.80016C13.3337 9.0135 11.5537 11.6335 8.00033 14.6668C4.44699 11.6335 2.66699 9.0135 2.66699 6.80016C2.66699 3.48016 5.20033 1.3335 8.00033 1.3335Z" fill="#323232"/>
</g>
<defs>
<clipPath id="clip0_2119_1380">
<rect width="16" height="16" fill="white"/>
</clipPath>
</defs>
</svg>
