<svg width="86" height="86" viewBox="0 0 86 86" fill="none" xmlns="http://www.w3.org/2000/svg">
<path d="M73.9205 26.7745C73.1767 24.0118 70.9984 21.8334 68.2356 21.0896C63.1883 19.7083 42.9989 19.7083 42.9989 19.7083C42.9989 19.7083 22.8095 19.7083 17.7622 21.0365C15.0525 21.7803 12.8211 24.0118 12.0773 26.7745C10.749 31.8219 10.749 42.2885 10.749 42.2885C10.749 42.2885 10.749 52.8082 12.0773 57.8024C12.8211 60.5652 14.9994 62.7435 17.7622 63.4873C22.8626 64.8687 42.9989 64.8687 42.9989 64.8687C42.9989 64.8687 63.1883 64.8687 68.2356 63.5404C70.9984 62.7966 73.1767 60.6183 73.9205 57.8555C75.2487 52.8082 75.2487 42.3416 75.2487 42.3416C75.2487 42.3416 75.3019 31.8219 73.9205 26.7745Z" fill="#FF0000"/>
<path d="M36.5703 51.5893L53.3594 41.9196L36.5703 32.25V51.5893Z" fill="white"/>
</svg>
