<svg width="32" height="32" viewBox="0 0 32 32" fill="none" xmlns="http://www.w3.org/2000/svg">
<path d="M13.0758 10.0562C14.3865 12.1021 14.4691 13.7784 14.0066 15.0857C13.5385 16.4087 12.4928 17.4082 11.451 18.0449C10.4092 18.6817 9.0317 19.1634 7.60897 18.9962C6.20301 18.8309 4.6957 18.0253 3.38499 15.9794C2.06399 13.9174 1.21163 11.0123 0.960833 8.45492C0.835586 7.17773 0.862266 6.0051 1.04658 5.0809C1.23441 4.13906 1.56996 3.5326 1.98955 3.27614C2.40913 3.01968 3.11423 2.99006 4.06354 3.23685C4.99507 3.47902 6.08643 3.96829 7.20763 4.63673C9.45263 5.97518 11.7548 7.99412 13.0758 10.0562Z" fill="white" stroke="black" stroke-width="0.642857"/>
<path d="M28.4707 24.6906C27.1725 27.2496 25.4895 28.3781 23.8419 28.736C22.1777 29.0976 20.4925 28.6854 19.1883 28.0541C17.8842 27.423 16.5275 26.3629 15.8141 24.8506C15.1076 23.3533 15.0073 21.3616 16.3055 18.8027C17.6158 16.2196 19.9143 13.5832 22.3095 11.5919C23.5055 10.5976 24.7177 9.77085 25.8323 9.19453C26.8918 8.64661 27.8357 8.33941 28.5818 8.30688C29.0367 8.76024 29.4395 9.61477 29.7377 10.7862C30.0515 12.0188 30.2356 13.5451 30.2664 15.1814C30.3282 18.4615 29.7734 22.1225 28.4707 24.6906Z" fill="white" stroke="black" stroke-width="0.642857"/>
<path d="M6.66602 10.9355C8.55488 11.6953 11.5327 18.1638 10.9993 24.9361" stroke="black" stroke-width="0.642857"/>
<path d="M24.3327 18.0984C23.3327 21.897 18.9993 29.1686 12.666 30.4709" stroke="black" stroke-width="0.642857"/>
</svg>
