<svg width="32" height="32" viewBox="0 0 32 32" fill="none" xmlns="http://www.w3.org/2000/svg">
<path d="M9.66569 16.2091C7.05902 13.148 1.99902 14.8316 1.99902 19.1171C1.99902 23.4027 6.59902 25.5455 9.66569 28.6066C12.7324 25.5455 17.3324 23.4027 17.3324 19.1171C17.3324 14.8316 12.2724 13.148 9.66569 16.2091Z" fill="white" stroke="black" stroke-width="0.642857" stroke-miterlimit="10"/>
<path d="M24.3327 6.53045C22.406 4.19818 18.666 5.48093 18.666 8.74612C18.666 12.0113 22.066 13.6439 24.3327 15.9762C26.5993 13.6439 29.9993 12.0113 29.9993 8.74612C29.9993 5.48093 26.2593 4.19818 24.3327 6.53045Z" fill="white" stroke="black" stroke-width="0.642857" stroke-miterlimit="10"/>
<path d="M4.66699 19.2999C4.66699 18.1985 5.56243 17.3057 6.66699 17.3057" stroke="black" stroke-width="0.642857"/>
</svg>
