<svg width="24" height="24" viewBox="0 0 24 24" fill="none" xmlns="http://www.w3.org/2000/svg">
<rect width="24" height="24" fill="url(#paint0_linear_130_1450)"/>
<path fill-rule="evenodd" clip-rule="evenodd" d="M12.6966 3.2962C14.8209 3.40061 16.8004 4.27663 18.3124 5.78956C19.9251 7.40328 20.8128 9.54835 20.8119 11.8295C20.81 16.537 16.9777 20.3671 12.27 20.3671H12.2665C10.8368 20.3666 9.43212 20.0082 8.18447 19.328L3.65625 20.5152L4.86811 16.091C4.12059 14.7962 3.72726 13.3276 3.72787 11.8228C3.72976 7.11545 7.56168 3.28564 12.2699 3.28564L12.6966 3.2962ZM8.39425 17.7824L8.65354 17.9361C9.7436 18.5827 10.9931 18.9248 12.2671 18.9253H12.27C16.1832 18.9253 19.3681 15.7419 19.3696 11.829C19.3704 9.93295 18.6326 8.15005 17.2922 6.80876C15.9517 5.46739 14.1691 4.72826 12.2728 4.72764C8.35661 4.72764 5.17166 7.91073 5.1701 11.8232C5.16956 13.1641 5.5449 14.47 6.25559 15.5997L6.4244 15.8683L5.70717 18.4869L8.39425 17.7824ZM16.5733 13.8598C16.52 13.7707 16.3777 13.7174 16.1643 13.6106C15.9509 13.5038 14.9015 12.9877 14.7059 12.9165C14.5102 12.8454 14.3679 12.8098 14.2257 13.0233C14.0834 13.2368 13.6744 13.7174 13.5498 13.8598C13.4254 14.0021 13.3008 14.0199 13.0875 13.9132C12.874 13.8064 12.1863 13.5811 11.3711 12.8543C10.7366 12.2886 10.3082 11.5901 10.1837 11.3765C10.0592 11.163 10.1704 11.0475 10.2773 10.9411C10.3733 10.8455 10.4907 10.692 10.5975 10.5674C10.7042 10.4429 10.7397 10.3538 10.8109 10.2115C10.882 10.0691 10.8464 9.94457 10.7931 9.83779C10.7397 9.73096 10.3129 8.68091 10.135 8.25376C9.96176 7.83782 9.7858 7.89413 9.6548 7.88756C9.53045 7.8814 9.38803 7.88005 9.24577 7.88005C9.10346 7.88005 8.87223 7.9334 8.67659 8.14701C8.48095 8.36055 7.92958 8.8767 7.92958 9.92667C7.92958 10.9768 8.69439 11.9911 8.80111 12.1335C8.90782 12.2759 10.3061 14.4305 12.4472 15.3547C12.9564 15.5745 13.3539 15.7057 13.6639 15.804C14.1752 15.9664 14.6405 15.9435 15.0082 15.8886C15.4183 15.8273 16.271 15.3725 16.4489 14.8742C16.6267 14.3758 16.6267 13.9487 16.5733 13.8598Z" fill="white"/>
<defs>
<linearGradient id="paint0_linear_130_1450" x1="12" y1="24" x2="12" y2="0" gradientUnits="userSpaceOnUse">
<stop stop-color="#25CF43"/>
<stop offset="1" stop-color="#61FD7D"/>
</linearGradient>
</defs>
</svg>
